<mxfile host="app.diagrams.net" modified="2021-03-23T16:20:59.271Z" agent="5.0 (Windows NT 10.0; Win64; x64) AppleWebKit/537.36 (KHTML, like Gecko) Chrome/89.0.4389.90 Safari/537.36 Edg/89.0.774.57" etag="eSsdWUJA9TGxbk3BdkvI" version="14.4.9" type="github">
  <diagram id="Mz-pZN6N70vK2Mvc3RKa" name="Page-1">
    <mxGraphModel dx="1280" dy="980" grid="0" gridSize="10" guides="1" tooltips="1" connect="1" arrows="1" fold="1" page="0" pageScale="1" pageWidth="827" pageHeight="1169" math="0" shadow="1">
      <root>
        <mxCell id="0" />
        <mxCell id="1" parent="0" />
        <UserObject label="&lt;div style=&quot;color: rgb(0 , 0 , 0) ; font-family: &amp;#34;helvetica&amp;#34; ; font-size: 12px ; font-style: normal ; font-weight: 400 ; letter-spacing: normal ; text-align: center ; text-indent: 0px ; text-transform: none ; word-spacing: 0px ; background-color: rgb(255 , 255 , 255)&quot;&gt;job.QueueingJobExecutor&lt;br&gt;&lt;/div&gt;&lt;div style=&quot;color: rgb(0 , 0 , 0) ; font-family: &amp;#34;helvetica&amp;#34; ; font-size: 12px ; font-style: normal ; font-weight: 400 ; letter-spacing: normal ; text-align: center ; text-indent: 0px ; text-transform: none ; word-spacing: 0px ; background-color: rgb(255 , 255 , 255)&quot;&gt;executeLoop()&lt;br&gt;&lt;/div&gt;" id="YlmNu_Pjk9KRMEViyhRj-3">
          <mxCell style="whiteSpace=wrap;html=1;align=center;treeFolding=1;treeMoving=1;newEdgeStyle={&quot;edgeStyle&quot;:&quot;elbowEdgeStyle&quot;,&quot;startArrow&quot;:&quot;none&quot;,&quot;endArrow&quot;:&quot;none&quot;};" parent="1" vertex="1">
            <mxGeometry x="919" y="393" width="164" height="60" as="geometry" />
          </mxCell>
        </UserObject>
        <mxCell id="YlmNu_Pjk9KRMEViyhRj-4" style="edgeStyle=orthogonalEdgeStyle;rounded=0;orthogonalLoop=1;jettySize=auto;html=1;exitX=1;exitY=0.5;exitDx=0;exitDy=0;entryX=0;entryY=0.5;entryDx=0;entryDy=0;endArrow=classic;endFill=1;" parent="1" source="YlmNu_Pjk9KRMEViyhRj-3" target="YlmNu_Pjk9KRMEViyhRj-5" edge="1">
          <mxGeometry relative="1" as="geometry">
            <mxPoint x="847" y="347" as="sourcePoint" />
          </mxGeometry>
        </mxCell>
        <UserObject label="&lt;div&gt;job.JobFactory.&lt;/div&gt;&lt;div&gt;createJob()&lt;br style=&quot;color: rgb(0 , 0 , 0) ; font-family: &amp;#34;helvetica&amp;#34; ; font-size: 12px ; font-style: normal ; font-weight: 400 ; letter-spacing: normal ; text-align: center ; text-indent: 0px ; text-transform: none ; word-spacing: 0px ; background-color: rgb(255 , 255 , 255)&quot;&gt;&lt;br&gt;&lt;/div&gt;" id="YlmNu_Pjk9KRMEViyhRj-5">
          <mxCell style="whiteSpace=wrap;html=1;align=center;treeFolding=1;treeMoving=1;newEdgeStyle={&quot;edgeStyle&quot;:&quot;elbowEdgeStyle&quot;,&quot;startArrow&quot;:&quot;none&quot;,&quot;endArrow&quot;:&quot;none&quot;};" parent="1" vertex="1">
            <mxGeometry x="1123" y="393" width="164" height="60" as="geometry" />
          </mxCell>
        </UserObject>
        <mxCell id="YlmNu_Pjk9KRMEViyhRj-6" style="edgeStyle=orthogonalEdgeStyle;rounded=0;orthogonalLoop=1;jettySize=auto;html=1;exitX=1;exitY=0.5;exitDx=0;exitDy=0;entryX=0;entryY=0.5;entryDx=0;entryDy=0;endArrow=classic;endFill=1;" parent="1" source="YlmNu_Pjk9KRMEViyhRj-3" target="YlmNu_Pjk9KRMEViyhRj-7" edge="1">
          <mxGeometry relative="1" as="geometry">
            <mxPoint x="1083" y="423" as="sourcePoint" />
          </mxGeometry>
        </mxCell>
        <UserObject label="&lt;div&gt;&lt;span style=&quot;color: rgb(0 , 0 , 0) ; font-family: &amp;#34;helvetica&amp;#34; ; font-size: 12px ; font-style: normal ; font-weight: 400 ; letter-spacing: normal ; text-align: center ; text-indent: 0px ; text-transform: none ; word-spacing: 0px ; background-color: rgb(255 , 255 , 255) ; display: inline ; float: none&quot;&gt;job.Job.&lt;/span&gt;&lt;/div&gt;&lt;div&gt;&lt;span style=&quot;color: rgb(0 , 0 , 0) ; font-family: &amp;#34;helvetica&amp;#34; ; font-size: 12px ; font-style: normal ; font-weight: 400 ; letter-spacing: normal ; text-align: center ; text-indent: 0px ; text-transform: none ; word-spacing: 0px ; background-color: rgb(255 , 255 , 255) ; display: inline ; float: none&quot;&gt;run()&lt;/span&gt;&lt;/div&gt;" id="YlmNu_Pjk9KRMEViyhRj-7">
          <mxCell style="whiteSpace=wrap;html=1;align=center;treeFolding=1;treeMoving=1;newEdgeStyle={&quot;edgeStyle&quot;:&quot;elbowEdgeStyle&quot;,&quot;startArrow&quot;:&quot;none&quot;,&quot;endArrow&quot;:&quot;none&quot;};" parent="1" vertex="1">
            <mxGeometry x="1123" y="463" width="164" height="60" as="geometry" />
          </mxCell>
        </UserObject>
        <mxCell id="YlmNu_Pjk9KRMEViyhRj-8" style="edgeStyle=orthogonalEdgeStyle;rounded=0;orthogonalLoop=1;jettySize=auto;html=1;entryX=0;entryY=0.5;entryDx=0;entryDy=0;endArrow=classic;endFill=1;" parent="1" target="YlmNu_Pjk9KRMEViyhRj-9" edge="1">
          <mxGeometry relative="1" as="geometry">
            <mxPoint x="1286" y="498" as="sourcePoint" />
          </mxGeometry>
        </mxCell>
        <mxCell id="YlmNu_Pjk9KRMEViyhRj-44" style="edgeStyle=orthogonalEdgeStyle;rounded=0;orthogonalLoop=1;jettySize=auto;html=1;exitX=1;exitY=0.5;exitDx=0;exitDy=0;entryX=0;entryY=0.5;entryDx=0;entryDy=0;" parent="1" source="YlmNu_Pjk9KRMEViyhRj-9" target="YlmNu_Pjk9KRMEViyhRj-11" edge="1">
          <mxGeometry relative="1" as="geometry" />
        </mxCell>
        <UserObject label="&lt;div&gt;&lt;span style=&quot;color: rgb(0 , 0 , 0) ; font-family: &amp;#34;helvetica&amp;#34; ; font-size: 12px ; font-style: normal ; font-weight: 400 ; letter-spacing: normal ; text-align: center ; text-indent: 0px ; text-transform: none ; word-spacing: 0px ; background-color: rgb(255 , 255 , 255) ; display: inline ; float: none&quot;&gt;job.Job.&lt;/span&gt;&lt;/div&gt;&lt;div&gt;&lt;span style=&quot;color: rgb(0 , 0 , 0) ; font-family: &amp;#34;helvetica&amp;#34; ; font-size: 12px ; font-style: normal ; font-weight: 400 ; letter-spacing: normal ; text-align: center ; text-indent: 0px ; text-transform: none ; word-spacing: 0px ; background-color: rgb(255 , 255 , 255) ; display: inline ; float: none&quot;&gt;runJob()&lt;/span&gt;&lt;/div&gt;" id="YlmNu_Pjk9KRMEViyhRj-9">
          <mxCell style="whiteSpace=wrap;html=1;align=center;treeFolding=1;treeMoving=1;newEdgeStyle={&quot;edgeStyle&quot;:&quot;elbowEdgeStyle&quot;,&quot;startArrow&quot;:&quot;none&quot;,&quot;endArrow&quot;:&quot;none&quot;};" parent="1" vertex="1">
            <mxGeometry x="1327" y="468" width="164" height="60" as="geometry" />
          </mxCell>
        </UserObject>
        <UserObject label="&lt;div&gt;&lt;span style=&quot;color: rgb(0 , 0 , 0) ; font-family: &amp;#34;helvetica&amp;#34; ; font-size: 12px ; font-style: normal ; font-weight: 400 ; letter-spacing: normal ; text-align: center ; text-indent: 0px ; text-transform: none ; word-spacing: 0px ; background-color: rgb(255 , 255 , 255) ; display: inline ; float: none&quot;&gt;(abstract)&lt;br&gt;&lt;/span&gt;&lt;/div&gt;&lt;div&gt;&lt;span style=&quot;color: rgb(0 , 0 , 0) ; font-family: &amp;#34;helvetica&amp;#34; ; font-size: 12px ; font-style: normal ; font-weight: 400 ; letter-spacing: normal ; text-align: center ; text-indent: 0px ; text-transform: none ; word-spacing: 0px ; background-color: rgb(255 , 255 , 255) ; display: inline ; float: none&quot;&gt;job.Job.&lt;/span&gt;&lt;/div&gt;&lt;div&gt;&lt;span style=&quot;color: rgb(0 , 0 , 0) ; font-family: &amp;#34;helvetica&amp;#34; ; font-size: 12px ; font-style: normal ; font-weight: 400 ; letter-spacing: normal ; text-align: center ; text-indent: 0px ; text-transform: none ; word-spacing: 0px ; background-color: rgb(255 , 255 , 255) ; display: inline ; float: none&quot;&gt;&amp;nbsp;triggerJob()&lt;/span&gt;&lt;/div&gt;" id="YlmNu_Pjk9KRMEViyhRj-11">
          <mxCell style="whiteSpace=wrap;html=1;align=center;treeFolding=1;treeMoving=1;newEdgeStyle={&quot;edgeStyle&quot;:&quot;elbowEdgeStyle&quot;,&quot;startArrow&quot;:&quot;none&quot;,&quot;endArrow&quot;:&quot;none&quot;};" parent="1" vertex="1">
            <mxGeometry x="1531" y="468" width="164" height="60" as="geometry" />
          </mxCell>
        </UserObject>
        <mxCell id="YlmNu_Pjk9KRMEViyhRj-12" style="edgeStyle=orthogonalEdgeStyle;rounded=0;orthogonalLoop=1;jettySize=auto;html=1;exitX=1;exitY=0.5;exitDx=0;exitDy=0;entryX=0;entryY=0.5;entryDx=0;entryDy=0;endArrow=classic;endFill=1;" parent="1" source="YlmNu_Pjk9KRMEViyhRj-5" target="YlmNu_Pjk9KRMEViyhRj-13" edge="1">
          <mxGeometry relative="1" as="geometry">
            <mxPoint x="1083" y="423" as="sourcePoint" />
          </mxGeometry>
        </mxCell>
        <UserObject label="&lt;div&gt;JobFactory.&lt;/div&gt;&lt;div&gt;getImportBackupJob()&lt;br&gt;&lt;/div&gt;" id="YlmNu_Pjk9KRMEViyhRj-13">
          <mxCell style="whiteSpace=wrap;html=1;align=center;treeFolding=1;treeMoving=1;newEdgeStyle={&quot;edgeStyle&quot;:&quot;elbowEdgeStyle&quot;,&quot;startArrow&quot;:&quot;none&quot;,&quot;endArrow&quot;:&quot;none&quot;};fillColor=#dae8fc;strokeColor=#6c8ebf;" parent="1" vertex="1">
            <mxGeometry x="1327" y="393" width="164" height="60" as="geometry" />
          </mxCell>
        </UserObject>
        <mxCell id="YlmNu_Pjk9KRMEViyhRj-14" style="edgeStyle=orthogonalEdgeStyle;rounded=0;orthogonalLoop=1;jettySize=auto;html=1;exitX=1;exitY=0.5;exitDx=0;exitDy=0;entryX=0;entryY=0.5;entryDx=0;entryDy=0;endArrow=classic;endFill=1;" parent="1" source="YlmNu_Pjk9KRMEViyhRj-13" target="YlmNu_Pjk9KRMEViyhRj-15" edge="1">
          <mxGeometry relative="1" as="geometry">
            <mxPoint x="1287" y="423" as="sourcePoint" />
          </mxGeometry>
        </mxCell>
        <UserObject label="&lt;div&gt;job.&lt;/div&gt;&lt;div&gt;setBackupImporter()&lt;/div&gt;" id="YlmNu_Pjk9KRMEViyhRj-15">
          <mxCell style="whiteSpace=wrap;html=1;align=center;treeFolding=1;treeMoving=1;newEdgeStyle={&quot;edgeStyle&quot;:&quot;elbowEdgeStyle&quot;,&quot;startArrow&quot;:&quot;none&quot;,&quot;endArrow&quot;:&quot;none&quot;};fillColor=#f8cecc;strokeColor=#b85450;" parent="1" vertex="1">
            <mxGeometry x="1531" y="393" width="164" height="60" as="geometry" />
          </mxCell>
        </UserObject>
        <mxCell id="YlmNu_Pjk9KRMEViyhRj-16" style="edgeStyle=orthogonalEdgeStyle;rounded=0;orthogonalLoop=1;jettySize=auto;html=1;exitX=1;exitY=0.5;exitDx=0;exitDy=0;entryX=0;entryY=0.5;entryDx=0;entryDy=0;endArrow=classic;endFill=1;" parent="1" source="YlmNu_Pjk9KRMEViyhRj-11" target="YlmNu_Pjk9KRMEViyhRj-17" edge="1">
          <mxGeometry relative="1" as="geometry">
            <mxPoint x="1083" y="423" as="sourcePoint" />
          </mxGeometry>
        </mxCell>
        <UserObject label="ImportBackupJob.&lt;br&gt;&lt;div&gt;&lt;span&gt;&lt;span style=&quot;color: rgb(0 , 0 , 0) ; font-family: &amp;#34;helvetica&amp;#34; ; font-size: 12px ; font-style: normal ; font-weight: 400 ; letter-spacing: normal ; text-align: center ; text-indent: 0px ; text-transform: none ; word-spacing: 0px ; display: inline ; float: none&quot;&gt;&amp;nbsp;triggerJob()&lt;/span&gt;&lt;/span&gt;&lt;/div&gt;" id="YlmNu_Pjk9KRMEViyhRj-17">
          <mxCell style="whiteSpace=wrap;html=1;align=center;treeFolding=1;treeMoving=1;newEdgeStyle={&quot;edgeStyle&quot;:&quot;elbowEdgeStyle&quot;,&quot;startArrow&quot;:&quot;none&quot;,&quot;endArrow&quot;:&quot;none&quot;};fillColor=#dae8fc;strokeColor=#6c8ebf;" parent="1" vertex="1">
            <mxGeometry x="959" y="628" width="164" height="60" as="geometry" />
          </mxCell>
        </UserObject>
        <mxCell id="YlmNu_Pjk9KRMEViyhRj-18" style="edgeStyle=orthogonalEdgeStyle;rounded=0;orthogonalLoop=1;jettySize=auto;html=1;exitX=1;exitY=0.5;exitDx=0;exitDy=0;entryX=0;entryY=0.5;entryDx=0;entryDy=0;endArrow=classic;endFill=1;" parent="1" source="YlmNu_Pjk9KRMEViyhRj-17" target="YlmNu_Pjk9KRMEViyhRj-19" edge="1">
          <mxGeometry relative="1" as="geometry">
            <mxPoint x="919" y="658" as="sourcePoint" />
          </mxGeometry>
        </mxCell>
        <UserObject label="&lt;div style=&quot;color: rgb(0 , 0 , 0) ; font-family: &amp;#34;helvetica&amp;#34; ; font-size: 12px ; font-style: normal ; font-weight: 400 ; letter-spacing: normal ; text-align: center ; text-indent: 0px ; text-transform: none ; word-spacing: 0px&quot;&gt;ImportBackupJob.&lt;/div&gt;&lt;div style=&quot;color: rgb(0 , 0 , 0) ; font-family: &amp;#34;helvetica&amp;#34; ; font-size: 12px ; font-style: normal ; font-weight: 400 ; letter-spacing: normal ; text-align: center ; text-indent: 0px ; text-transform: none ; word-spacing: 0px&quot;&gt;populateExternalClientProterties()&lt;/div&gt;" id="YlmNu_Pjk9KRMEViyhRj-19">
          <mxCell style="whiteSpace=wrap;html=1;align=center;treeFolding=1;treeMoving=1;newEdgeStyle={&quot;edgeStyle&quot;:&quot;elbowEdgeStyle&quot;,&quot;startArrow&quot;:&quot;none&quot;,&quot;endArrow&quot;:&quot;none&quot;};fillColor=#dae8fc;strokeColor=#6c8ebf;" parent="1" vertex="1">
            <mxGeometry x="1163" y="628" width="193" height="60" as="geometry" />
          </mxCell>
        </UserObject>
        <mxCell id="YlmNu_Pjk9KRMEViyhRj-20" style="edgeStyle=orthogonalEdgeStyle;rounded=0;orthogonalLoop=1;jettySize=auto;html=1;exitX=1;exitY=0.5;exitDx=0;exitDy=0;entryX=0;entryY=0.5;entryDx=0;entryDy=0;endArrow=classic;endFill=1;" parent="1" source="YlmNu_Pjk9KRMEViyhRj-17" target="YlmNu_Pjk9KRMEViyhRj-21" edge="1">
          <mxGeometry relative="1" as="geometry">
            <mxPoint x="919" y="658" as="sourcePoint" />
          </mxGeometry>
        </mxCell>
        <mxCell id="MKJY3mt1oCpG8gxxbo0l-2" value="" style="edgeStyle=orthogonalEdgeStyle;rounded=0;orthogonalLoop=1;jettySize=auto;html=1;" edge="1" parent="1" source="YlmNu_Pjk9KRMEViyhRj-21" target="MKJY3mt1oCpG8gxxbo0l-1">
          <mxGeometry relative="1" as="geometry" />
        </mxCell>
        <mxCell id="MKJY3mt1oCpG8gxxbo0l-3" value="" style="edgeStyle=orthogonalEdgeStyle;rounded=0;orthogonalLoop=1;jettySize=auto;html=1;" edge="1" parent="1" source="YlmNu_Pjk9KRMEViyhRj-21" target="MKJY3mt1oCpG8gxxbo0l-1">
          <mxGeometry relative="1" as="geometry" />
        </mxCell>
        <mxCell id="MKJY3mt1oCpG8gxxbo0l-6" style="edgeStyle=orthogonalEdgeStyle;rounded=0;orthogonalLoop=1;jettySize=auto;html=1;exitX=0.5;exitY=1;exitDx=0;exitDy=0;entryX=0;entryY=0.5;entryDx=0;entryDy=0;" edge="1" parent="1" source="YlmNu_Pjk9KRMEViyhRj-21" target="MKJY3mt1oCpG8gxxbo0l-4">
          <mxGeometry relative="1" as="geometry" />
        </mxCell>
        <mxCell id="MKJY3mt1oCpG8gxxbo0l-9" value="Or" style="edgeStyle=orthogonalEdgeStyle;rounded=0;orthogonalLoop=1;jettySize=auto;html=1;exitX=0.5;exitY=1;exitDx=0;exitDy=0;entryX=0;entryY=0.5;entryDx=0;entryDy=0;" edge="1" parent="1" source="YlmNu_Pjk9KRMEViyhRj-21" target="MKJY3mt1oCpG8gxxbo0l-7">
          <mxGeometry relative="1" as="geometry" />
        </mxCell>
        <mxCell id="MKJY3mt1oCpG8gxxbo0l-11" style="edgeStyle=orthogonalEdgeStyle;rounded=0;orthogonalLoop=1;jettySize=auto;html=1;exitX=0.25;exitY=1;exitDx=0;exitDy=0;entryX=0;entryY=0.5;entryDx=0;entryDy=0;" edge="1" parent="1" source="YlmNu_Pjk9KRMEViyhRj-21" target="MKJY3mt1oCpG8gxxbo0l-10">
          <mxGeometry relative="1" as="geometry" />
        </mxCell>
        <mxCell id="MKJY3mt1oCpG8gxxbo0l-13" style="edgeStyle=orthogonalEdgeStyle;rounded=0;orthogonalLoop=1;jettySize=auto;html=1;exitX=0.25;exitY=1;exitDx=0;exitDy=0;entryX=0;entryY=0.5;entryDx=0;entryDy=0;" edge="1" parent="1" source="YlmNu_Pjk9KRMEViyhRj-21" target="MKJY3mt1oCpG8gxxbo0l-12">
          <mxGeometry relative="1" as="geometry" />
        </mxCell>
        <UserObject label="&lt;div style=&quot;color: rgb(0 , 0 , 0) ; font-family: &amp;#34;helvetica&amp;#34; ; font-size: 12px ; font-style: normal ; font-weight: 400 ; letter-spacing: normal ; text-align: center ; text-indent: 0px ; text-transform: none ; word-spacing: 0px&quot;&gt;BackupImpoter.&lt;/div&gt;&lt;div style=&quot;color: rgb(0 , 0 , 0) ; font-family: &amp;#34;helvetica&amp;#34; ; font-size: 12px ; font-style: normal ; font-weight: 400 ; letter-spacing: normal ; text-align: center ; text-indent: 0px ; text-transform: none ; word-spacing: 0px&quot;&gt;importBackup&lt;/div&gt;" id="YlmNu_Pjk9KRMEViyhRj-21">
          <mxCell style="whiteSpace=wrap;html=1;align=center;treeFolding=1;treeMoving=1;newEdgeStyle={&quot;edgeStyle&quot;:&quot;elbowEdgeStyle&quot;,&quot;startArrow&quot;:&quot;none&quot;,&quot;endArrow&quot;:&quot;none&quot;};fillColor=#dae8fc;strokeColor=#6c8ebf;" parent="1" vertex="1">
            <mxGeometry x="1163" y="765" width="164" height="60" as="geometry" />
          </mxCell>
        </UserObject>
        <UserObject label="&lt;div style=&quot;color: rgb(0 , 0 , 0) ; font-family: &amp;#34;helvetica&amp;#34; ; font-size: 12px ; font-style: normal ; font-weight: 400 ; letter-spacing: normal ; text-align: center ; text-indent: 0px ; text-transform: none ; word-spacing: 0px&quot;&gt;ExternalConnectionFactory.&lt;/div&gt;&lt;div style=&quot;color: rgb(0 , 0 , 0) ; font-family: &amp;#34;helvetica&amp;#34; ; font-size: 12px ; font-style: normal ; font-weight: 400 ; letter-spacing: normal ; text-align: center ; text-indent: 0px ; text-transform: none ; word-spacing: 0px&quot;&gt;connect()&lt;/div&gt;" id="MKJY3mt1oCpG8gxxbo0l-1">
          <mxCell style="whiteSpace=wrap;html=1;align=center;treeFolding=1;treeMoving=1;newEdgeStyle={&quot;edgeStyle&quot;:&quot;elbowEdgeStyle&quot;,&quot;startArrow&quot;:&quot;none&quot;,&quot;endArrow&quot;:&quot;none&quot;};fillColor=#dae8fc;strokeColor=#6c8ebf;" vertex="1" parent="1">
            <mxGeometry x="1428" y="765" width="164" height="60" as="geometry" />
          </mxCell>
        </UserObject>
        <UserObject label="&lt;div style=&quot;color: rgb(0 , 0 , 0) ; font-family: &amp;#34;helvetica&amp;#34; ; font-size: 12px ; font-style: normal ; font-weight: 400 ; letter-spacing: normal ; text-align: center ; text-indent: 0px ; text-transform: none ; word-spacing: 0px&quot;&gt;BackupImpoter.&lt;/div&gt;&lt;div style=&quot;color: rgb(0 , 0 , 0) ; font-family: &amp;#34;helvetica&amp;#34; ; font-size: 12px ; font-style: normal ; font-weight: 400 ; letter-spacing: normal ; text-align: center ; text-indent: 0px ; text-transform: none ; word-spacing: 0px&quot;&gt;handleLegacyURIFormat()&lt;/div&gt;" id="MKJY3mt1oCpG8gxxbo0l-4">
          <mxCell style="whiteSpace=wrap;html=1;align=center;treeFolding=1;treeMoving=1;newEdgeStyle={&quot;edgeStyle&quot;:&quot;elbowEdgeStyle&quot;,&quot;startArrow&quot;:&quot;none&quot;,&quot;endArrow&quot;:&quot;none&quot;};fillColor=#dae8fc;strokeColor=#6c8ebf;" vertex="1" parent="1">
            <mxGeometry x="1428" y="849" width="164" height="60" as="geometry" />
          </mxCell>
        </UserObject>
        <mxCell id="MKJY3mt1oCpG8gxxbo0l-21" value="" style="edgeStyle=orthogonalEdgeStyle;rounded=0;orthogonalLoop=1;jettySize=auto;html=1;" edge="1" parent="1" source="MKJY3mt1oCpG8gxxbo0l-7" target="MKJY3mt1oCpG8gxxbo0l-20">
          <mxGeometry relative="1" as="geometry" />
        </mxCell>
        <mxCell id="MKJY3mt1oCpG8gxxbo0l-23" style="edgeStyle=orthogonalEdgeStyle;rounded=0;orthogonalLoop=1;jettySize=auto;html=1;exitX=1;exitY=0.5;exitDx=0;exitDy=0;entryX=0;entryY=0.5;entryDx=0;entryDy=0;" edge="1" parent="1" source="MKJY3mt1oCpG8gxxbo0l-7" target="MKJY3mt1oCpG8gxxbo0l-22">
          <mxGeometry relative="1" as="geometry" />
        </mxCell>
        <UserObject label="&lt;div style=&quot;color: rgb(0 , 0 , 0) ; font-family: &amp;#34;helvetica&amp;#34; ; font-size: 12px ; font-style: normal ; font-weight: 400 ; letter-spacing: normal ; text-align: center ; text-indent: 0px ; text-transform: none ; word-spacing: 0px&quot;&gt;SftpConnection..&lt;/div&gt;&lt;div style=&quot;color: rgb(0 , 0 , 0) ; font-family: &amp;#34;helvetica&amp;#34; ; font-size: 12px ; font-style: normal ; font-weight: 400 ; letter-spacing: normal ; text-align: center ; text-indent: 0px ; text-transform: none ; word-spacing: 0px&quot;&gt;downloadBackupFile()&lt;/div&gt;" id="MKJY3mt1oCpG8gxxbo0l-7">
          <mxCell style="whiteSpace=wrap;html=1;align=center;treeFolding=1;treeMoving=1;newEdgeStyle={&quot;edgeStyle&quot;:&quot;elbowEdgeStyle&quot;,&quot;startArrow&quot;:&quot;none&quot;,&quot;endArrow&quot;:&quot;none&quot;};fillColor=#dae8fc;strokeColor=#6c8ebf;" vertex="1" parent="1">
            <mxGeometry x="1428" y="928" width="164" height="60" as="geometry" />
          </mxCell>
        </UserObject>
        <mxCell id="MKJY3mt1oCpG8gxxbo0l-15" value="" style="edgeStyle=orthogonalEdgeStyle;rounded=0;orthogonalLoop=1;jettySize=auto;html=1;" edge="1" parent="1" source="MKJY3mt1oCpG8gxxbo0l-10" target="MKJY3mt1oCpG8gxxbo0l-14">
          <mxGeometry relative="1" as="geometry" />
        </mxCell>
        <UserObject label="&lt;div style=&quot;color: rgb(0 , 0 , 0) ; font-family: &amp;#34;helvetica&amp;#34; ; font-size: 12px ; font-style: normal ; font-weight: 400 ; letter-spacing: normal ; text-align: center ; text-indent: 0px ; text-transform: none ; word-spacing: 0px&quot;&gt;BackupImporter.&lt;/div&gt;&lt;div style=&quot;color: rgb(0 , 0 , 0) ; font-family: &amp;#34;helvetica&amp;#34; ; font-size: 12px ; font-style: normal ; font-weight: 400 ; letter-spacing: normal ; text-align: center ; text-indent: 0px ; text-transform: none ; word-spacing: 0px&quot;&gt;importBackupFile()&lt;/div&gt;" id="MKJY3mt1oCpG8gxxbo0l-10">
          <mxCell style="whiteSpace=wrap;html=1;align=center;treeFolding=1;treeMoving=1;newEdgeStyle={&quot;edgeStyle&quot;:&quot;elbowEdgeStyle&quot;,&quot;startArrow&quot;:&quot;none&quot;,&quot;endArrow&quot;:&quot;none&quot;};fillColor=#dae8fc;strokeColor=#6c8ebf;" vertex="1" parent="1">
            <mxGeometry x="1428" y="1012" width="164" height="60" as="geometry" />
          </mxCell>
        </UserObject>
        <mxCell id="MKJY3mt1oCpG8gxxbo0l-17" value="" style="edgeStyle=orthogonalEdgeStyle;rounded=0;orthogonalLoop=1;jettySize=auto;html=1;" edge="1" parent="1" source="MKJY3mt1oCpG8gxxbo0l-12" target="MKJY3mt1oCpG8gxxbo0l-16">
          <mxGeometry relative="1" as="geometry" />
        </mxCell>
        <UserObject label="&lt;div style=&quot;color: rgb(0 , 0 , 0) ; font-family: &amp;#34;helvetica&amp;#34; ; font-size: 12px ; font-style: normal ; font-weight: 400 ; letter-spacing: normal ; text-align: center ; text-indent: 0px ; text-transform: none ; word-spacing: 0px&quot;&gt;BackupImporter.&lt;/div&gt;&lt;div style=&quot;color: rgb(0 , 0 , 0) ; font-family: &amp;#34;helvetica&amp;#34; ; font-size: 12px ; font-style: normal ; font-weight: 400 ; letter-spacing: normal ; text-align: center ; text-indent: 0px ; text-transform: none ; word-spacing: 0px&quot;&gt;importBackupData()&lt;/div&gt;" id="MKJY3mt1oCpG8gxxbo0l-12">
          <mxCell style="whiteSpace=wrap;html=1;align=center;treeFolding=1;treeMoving=1;newEdgeStyle={&quot;edgeStyle&quot;:&quot;elbowEdgeStyle&quot;,&quot;startArrow&quot;:&quot;none&quot;,&quot;endArrow&quot;:&quot;none&quot;};fillColor=#dae8fc;strokeColor=#6c8ebf;" vertex="1" parent="1">
            <mxGeometry x="1428" y="1096" width="164" height="60" as="geometry" />
          </mxCell>
        </UserObject>
        <mxCell id="MKJY3mt1oCpG8gxxbo0l-33" value="" style="edgeStyle=orthogonalEdgeStyle;rounded=0;orthogonalLoop=1;jettySize=auto;html=1;" edge="1" parent="1" source="MKJY3mt1oCpG8gxxbo0l-14" target="MKJY3mt1oCpG8gxxbo0l-32">
          <mxGeometry relative="1" as="geometry" />
        </mxCell>
        <UserObject label="&lt;div style=&quot;color: rgb(0 , 0 , 0) ; font-family: &amp;#34;helvetica&amp;#34; ; font-size: 12px ; font-style: normal ; font-weight: 400 ; letter-spacing: normal ; text-align: center ; text-indent: 0px ; text-transform: none ; word-spacing: 0px&quot;&gt;BackupRepository.&lt;/div&gt;&lt;div style=&quot;color: rgb(0 , 0 , 0) ; font-family: &amp;#34;helvetica&amp;#34; ; font-size: 12px ; font-style: normal ; font-weight: 400 ; letter-spacing: normal ; text-align: center ; text-indent: 0px ; text-transform: none ; word-spacing: 0px&quot;&gt;importBackup()&lt;/div&gt;" id="MKJY3mt1oCpG8gxxbo0l-14">
          <mxCell style="whiteSpace=wrap;html=1;align=center;treeFolding=1;treeMoving=1;newEdgeStyle={&quot;edgeStyle&quot;:&quot;elbowEdgeStyle&quot;,&quot;startArrow&quot;:&quot;none&quot;,&quot;endArrow&quot;:&quot;none&quot;};fillColor=#dae8fc;strokeColor=#6c8ebf;" vertex="1" parent="1">
            <mxGeometry x="1672" y="1012" width="164" height="60" as="geometry" />
          </mxCell>
        </UserObject>
        <mxCell id="MKJY3mt1oCpG8gxxbo0l-19" value="" style="edgeStyle=orthogonalEdgeStyle;rounded=0;orthogonalLoop=1;jettySize=auto;html=1;" edge="1" parent="1" source="MKJY3mt1oCpG8gxxbo0l-16" target="MKJY3mt1oCpG8gxxbo0l-18">
          <mxGeometry relative="1" as="geometry" />
        </mxCell>
        <UserObject label="&lt;div style=&quot;color: rgb(0 , 0 , 0) ; font-family: &amp;#34;helvetica&amp;#34; ; font-size: 12px ; font-style: normal ; font-weight: 400 ; letter-spacing: normal ; text-align: center ; text-indent: 0px ; text-transform: none ; word-spacing: 0px&quot;&gt;SftpConnection.&lt;/div&gt;&lt;div style=&quot;color: rgb(0 , 0 , 0) ; font-family: &amp;#34;helvetica&amp;#34; ; font-size: 12px ; font-style: normal ; font-weight: 400 ; letter-spacing: normal ; text-align: center ; text-indent: 0px ; text-transform: none ; word-spacing: 0px&quot;&gt;importBackupData()&lt;/div&gt;" id="MKJY3mt1oCpG8gxxbo0l-16">
          <mxCell style="whiteSpace=wrap;html=1;align=center;treeFolding=1;treeMoving=1;newEdgeStyle={&quot;edgeStyle&quot;:&quot;elbowEdgeStyle&quot;,&quot;startArrow&quot;:&quot;none&quot;,&quot;endArrow&quot;:&quot;none&quot;};fillColor=#dae8fc;strokeColor=#6c8ebf;" vertex="1" parent="1">
            <mxGeometry x="1672" y="1096" width="164" height="60" as="geometry" />
          </mxCell>
        </UserObject>
        <UserObject label="&lt;div style=&quot;color: rgb(0 , 0 , 0) ; font-family: &amp;#34;helvetica&amp;#34; ; font-size: 12px ; font-style: normal ; font-weight: 400 ; letter-spacing: normal ; text-align: center ; text-indent: 0px ; text-transform: none ; word-spacing: 0px&quot;&gt;Unsupported Exception()&lt;/div&gt;" id="MKJY3mt1oCpG8gxxbo0l-18">
          <mxCell style="whiteSpace=wrap;html=1;align=center;treeFolding=1;treeMoving=1;newEdgeStyle={&quot;edgeStyle&quot;:&quot;elbowEdgeStyle&quot;,&quot;startArrow&quot;:&quot;none&quot;,&quot;endArrow&quot;:&quot;none&quot;};fillColor=#fa6800;strokeColor=#C73500;fontColor=#ffffff;" vertex="1" parent="1">
            <mxGeometry x="1916" y="1096" width="164" height="60" as="geometry" />
          </mxCell>
        </UserObject>
        <UserObject label="&lt;div style=&quot;color: rgb(0 , 0 , 0) ; font-family: &amp;#34;helvetica&amp;#34; ; font-size: 12px ; font-style: normal ; font-weight: 400 ; letter-spacing: normal ; text-align: center ; text-indent: 0px ; text-transform: none ; word-spacing: 0px&quot;&gt;Unsupported Exception()&lt;/div&gt;" id="MKJY3mt1oCpG8gxxbo0l-20">
          <mxCell style="whiteSpace=wrap;html=1;align=center;treeFolding=1;treeMoving=1;newEdgeStyle={&quot;edgeStyle&quot;:&quot;elbowEdgeStyle&quot;,&quot;startArrow&quot;:&quot;none&quot;,&quot;endArrow&quot;:&quot;none&quot;};fillColor=#fa6800;strokeColor=#C73500;fontColor=#ffffff;" vertex="1" parent="1">
            <mxGeometry x="1672" y="928" width="164" height="60" as="geometry" />
          </mxCell>
        </UserObject>
        <mxCell id="MKJY3mt1oCpG8gxxbo0l-38" style="edgeStyle=orthogonalEdgeStyle;rounded=0;orthogonalLoop=1;jettySize=auto;html=1;exitX=1;exitY=0.5;exitDx=0;exitDy=0;entryX=0;entryY=0.5;entryDx=0;entryDy=0;" edge="1" parent="1" source="MKJY3mt1oCpG8gxxbo0l-22" target="MKJY3mt1oCpG8gxxbo0l-28">
          <mxGeometry relative="1" as="geometry" />
        </mxCell>
        <UserObject label="&lt;div style=&quot;color: rgb(0 , 0 , 0) ; font-family: &amp;#34;helvetica&amp;#34; ; font-size: 12px ; font-style: normal ; font-weight: 400 ; letter-spacing: normal ; text-align: center ; text-indent: 0px ; text-transform: none ; word-spacing: 0px&quot;&gt;SftpConnection..&lt;/div&gt;&lt;div style=&quot;color: rgb(0 , 0 , 0) ; font-family: &amp;#34;helvetica&amp;#34; ; font-size: 12px ; font-style: normal ; font-weight: 400 ; letter-spacing: normal ; text-align: center ; text-indent: 0px ; text-transform: none ; word-spacing: 0px&quot;&gt;downloadRemotePath()&lt;/div&gt;" id="MKJY3mt1oCpG8gxxbo0l-22">
          <mxCell style="whiteSpace=wrap;html=1;align=center;treeFolding=1;treeMoving=1;newEdgeStyle={&quot;edgeStyle&quot;:&quot;elbowEdgeStyle&quot;,&quot;startArrow&quot;:&quot;none&quot;,&quot;endArrow&quot;:&quot;none&quot;};fillColor=#dae8fc;strokeColor=#6c8ebf;" vertex="1" parent="1">
            <mxGeometry x="1670" y="844" width="164" height="60" as="geometry" />
          </mxCell>
        </UserObject>
        <mxCell id="MKJY3mt1oCpG8gxxbo0l-39" style="edgeStyle=orthogonalEdgeStyle;rounded=0;orthogonalLoop=1;jettySize=auto;html=1;exitX=1;exitY=0.5;exitDx=0;exitDy=0;entryX=0;entryY=0.5;entryDx=0;entryDy=0;" edge="1" parent="1" source="MKJY3mt1oCpG8gxxbo0l-28" target="MKJY3mt1oCpG8gxxbo0l-30">
          <mxGeometry relative="1" as="geometry" />
        </mxCell>
        <UserObject label="&lt;div style=&quot;color: rgb(0 , 0 , 0) ; font-family: &amp;#34;helvetica&amp;#34; ; font-size: 12px ; font-style: normal ; font-weight: 400 ; letter-spacing: normal ; text-align: center ; text-indent: 0px ; text-transform: none ; word-spacing: 0px&quot;&gt;SftpConnection..&lt;/div&gt;&lt;div style=&quot;color: rgb(0 , 0 , 0) ; font-family: &amp;#34;helvetica&amp;#34; ; font-size: 12px ; font-style: normal ; font-weight: 400 ; letter-spacing: normal ; text-align: center ; text-indent: 0px ; text-transform: none ; word-spacing: 0px&quot;&gt;downloadTarStream()&lt;/div&gt;" id="MKJY3mt1oCpG8gxxbo0l-28">
          <mxCell style="whiteSpace=wrap;html=1;align=center;treeFolding=1;treeMoving=1;newEdgeStyle={&quot;edgeStyle&quot;:&quot;elbowEdgeStyle&quot;,&quot;startArrow&quot;:&quot;none&quot;,&quot;endArrow&quot;:&quot;none&quot;};fillColor=#dae8fc;strokeColor=#6c8ebf;" vertex="1" parent="1">
            <mxGeometry x="1916" y="844" width="164" height="60" as="geometry" />
          </mxCell>
        </UserObject>
        <mxCell id="MKJY3mt1oCpG8gxxbo0l-41" value="" style="edgeStyle=orthogonalEdgeStyle;rounded=0;orthogonalLoop=1;jettySize=auto;html=1;" edge="1" parent="1" source="MKJY3mt1oCpG8gxxbo0l-30" target="MKJY3mt1oCpG8gxxbo0l-40">
          <mxGeometry relative="1" as="geometry" />
        </mxCell>
        <UserObject label="&lt;div style=&quot;color: rgb(0 , 0 , 0) ; font-family: &amp;#34;helvetica&amp;#34; ; font-size: 12px ; font-style: normal ; font-weight: 400 ; letter-spacing: normal ; text-align: center ; text-indent: 0px ; text-transform: none ; word-spacing: 0px&quot;&gt;ArchiveService.&lt;/div&gt;&lt;div style=&quot;color: rgb(0 , 0 , 0) ; font-family: &amp;#34;helvetica&amp;#34; ; font-size: 12px ; font-style: normal ; font-weight: 400 ; letter-spacing: normal ; text-align: center ; text-indent: 0px ; text-transform: none ; word-spacing: 0px&quot;&gt;unpackTarStream()&lt;/div&gt;" id="MKJY3mt1oCpG8gxxbo0l-30">
          <mxCell style="whiteSpace=wrap;html=1;align=center;treeFolding=1;treeMoving=1;newEdgeStyle={&quot;edgeStyle&quot;:&quot;elbowEdgeStyle&quot;,&quot;startArrow&quot;:&quot;none&quot;,&quot;endArrow&quot;:&quot;none&quot;};fillColor=#dae8fc;strokeColor=#6c8ebf;" vertex="1" parent="1">
            <mxGeometry x="2157" y="844" width="164" height="60" as="geometry" />
          </mxCell>
        </UserObject>
        <mxCell id="MKJY3mt1oCpG8gxxbo0l-35" value="" style="edgeStyle=orthogonalEdgeStyle;rounded=0;orthogonalLoop=1;jettySize=auto;html=1;" edge="1" parent="1" source="MKJY3mt1oCpG8gxxbo0l-32" target="MKJY3mt1oCpG8gxxbo0l-34">
          <mxGeometry relative="1" as="geometry" />
        </mxCell>
        <UserObject label="&lt;div style=&quot;color: rgb(0 , 0 , 0) ; font-family: &amp;#34;helvetica&amp;#34; ; font-size: 12px ; font-style: normal ; font-weight: 400 ; letter-spacing: normal ; text-align: center ; text-indent: 0px ; text-transform: none ; word-spacing: 0px&quot;&gt;BackupRepository.&lt;/div&gt;&lt;div style=&quot;color: rgb(0 , 0 , 0) ; font-family: &amp;#34;helvetica&amp;#34; ; font-size: 12px ; font-style: normal ; font-weight: 400 ; letter-spacing: normal ; text-align: center ; text-indent: 0px ; text-transform: none ; word-spacing: 0px&quot;&gt;persistNewBackup()&lt;/div&gt;" id="MKJY3mt1oCpG8gxxbo0l-32">
          <mxCell style="whiteSpace=wrap;html=1;align=center;treeFolding=1;treeMoving=1;newEdgeStyle={&quot;edgeStyle&quot;:&quot;elbowEdgeStyle&quot;,&quot;startArrow&quot;:&quot;none&quot;,&quot;endArrow&quot;:&quot;none&quot;};fillColor=#dae8fc;strokeColor=#6c8ebf;" vertex="1" parent="1">
            <mxGeometry x="1916" y="1012" width="164" height="60" as="geometry" />
          </mxCell>
        </UserObject>
        <mxCell id="MKJY3mt1oCpG8gxxbo0l-37" style="edgeStyle=orthogonalEdgeStyle;rounded=0;orthogonalLoop=1;jettySize=auto;html=1;exitX=1;exitY=0.5;exitDx=0;exitDy=0;entryX=0;entryY=0.5;entryDx=0;entryDy=0;" edge="1" parent="1" source="MKJY3mt1oCpG8gxxbo0l-34" target="MKJY3mt1oCpG8gxxbo0l-36">
          <mxGeometry relative="1" as="geometry" />
        </mxCell>
        <UserObject label="&lt;div style=&quot;color: rgb(0 , 0 , 0) ; font-family: &amp;#34;helvetica&amp;#34; ; font-size: 12px ; font-style: normal ; font-weight: 400 ; letter-spacing: normal ; text-align: center ; text-indent: 0px ; text-transform: none ; word-spacing: 0px&quot;&gt;backup.&lt;/div&gt;&lt;div style=&quot;color: rgb(0 , 0 , 0) ; font-family: &amp;#34;helvetica&amp;#34; ; font-size: 12px ; font-style: normal ; font-weight: 400 ; letter-spacing: normal ; text-align: center ; text-indent: 0px ; text-transform: none ; word-spacing: 0px&quot;&gt;BackupFileService.&lt;/div&gt;&lt;div style=&quot;color: rgb(0 , 0 , 0) ; font-family: &amp;#34;helvetica&amp;#34; ; font-size: 12px ; font-style: normal ; font-weight: 400 ; letter-spacing: normal ; text-align: center ; text-indent: 0px ; text-transform: none ; word-spacing: 0px&quot;&gt;writeToFile(backup)&lt;/div&gt;" id="MKJY3mt1oCpG8gxxbo0l-34">
          <mxCell style="whiteSpace=wrap;html=1;align=center;treeFolding=1;treeMoving=1;newEdgeStyle={&quot;edgeStyle&quot;:&quot;elbowEdgeStyle&quot;,&quot;startArrow&quot;:&quot;none&quot;,&quot;endArrow&quot;:&quot;none&quot;};fillColor=#dae8fc;strokeColor=#6c8ebf;" vertex="1" parent="1">
            <mxGeometry x="2160" y="1012" width="164" height="60" as="geometry" />
          </mxCell>
        </UserObject>
        <UserObject label="backup-managers\DEFAULT\ backups\myBackup4.json" id="MKJY3mt1oCpG8gxxbo0l-36">
          <mxCell style="whiteSpace=wrap;html=1;align=center;treeFolding=1;treeMoving=1;newEdgeStyle={&quot;edgeStyle&quot;:&quot;elbowEdgeStyle&quot;,&quot;startArrow&quot;:&quot;none&quot;,&quot;endArrow&quot;:&quot;none&quot;};fillColor=#60a917;strokeColor=#2D7600;fontColor=#ffffff;" vertex="1" parent="1">
            <mxGeometry x="2404" y="1012" width="164" height="60" as="geometry" />
          </mxCell>
        </UserObject>
        <UserObject label="&lt;div style=&quot;color: rgb(0 , 0 , 0) ; font-family: &amp;#34;helvetica&amp;#34; ; font-size: 12px ; font-style: normal ; font-weight: 400 ; letter-spacing: normal ; text-align: center ; text-indent: 0px ; text-transform: none ; word-spacing: 0px&quot;&gt;Extract All files (4 files)&lt;/div&gt;" id="MKJY3mt1oCpG8gxxbo0l-40">
          <mxCell style="whiteSpace=wrap;html=1;align=center;treeFolding=1;treeMoving=1;newEdgeStyle={&quot;edgeStyle&quot;:&quot;elbowEdgeStyle&quot;,&quot;startArrow&quot;:&quot;none&quot;,&quot;endArrow&quot;:&quot;none&quot;};fillColor=#60a917;strokeColor=#2D7600;fontColor=#ffffff;" vertex="1" parent="1">
            <mxGeometry x="2401" y="844" width="164" height="60" as="geometry" />
          </mxCell>
        </UserObject>
      </root>
    </mxGraphModel>
  </diagram>
</mxfile>
